#!OML:ASF I:\Random Stuff\random\construction\7_22_03\Session 2\subj1.ASF
:FULLY-SPECIFIED
:DEGREES
1408
root -8.52789 17.6135 -6.10317 -143.037 65.4657 -161.355
lowerback 14.8793 0.991321 -7.81603
upperback 6.6076 0.985108 -8.68417
thorax -1.20553 0.861488 -4.96626
lowerneck -20.6943 -4.11164 -0.120702
upperneck 44.4246 -6.24307 6.25602
head 22.5459 -0.792202 2.16548
rclavicle -4.13472e-014 6.67916e-014
rhumerus -6.44667 58.4146 -56.9171
rradius 74.4027
rwrist -56.2715
rhand -13.283 -12.8653
rfingers 7.12502
rthumb 12.8204 -42.4516
lclavicle -4.13472e-014 6.67916e-014
lhumerus 29.7196 -73.1954 68.8643
lradius 35.1241
lwrist 0.0945729
lhand -20.2028 60.2042
lfingers 7.12502
lthumb 6.14408 -90.0951
rfemur -9.91804 -8.73727 21.4783
rtibia -3.33958e-014
rfoot -4.4574 -15.7037
rtoes -15.782
lfemur -40.8283 -10.5779 -4.84735
ltibia 34.6907
lfoot -14.2033 -4.19875
ltoes -28.1351
1409
root -8.51935 17.6153 -6.10783 -143.243 65.3762 -161.575
lowerback 14.9427 0.951209 -7.77541
upperback 6.61116 0.937682 -8.77069
thorax -1.23434 0.844753 -5.07832
lowerneck -20.6755 -4.12555 -0.111048
upperneck 44.4575 -6.31181 6.37428
head 22.5872 -0.796804 2.21618
rclavicle -5.725e-014 7.95139e-014
rhumerus -6.10099 58.9203 -56.6435
rradius 74.4343
rwrist -55.0371
rhand -13.8274 -12.789
rfingers 7.12502
rthumb 12.2955 -42.4075
lclavicle -5.725e-014 7.95139e-014
lhumerus 29.6954 -73.2872 68.7912
lradius 35.106
lwrist -0.0332441
lhand -20.2106 60.1749
lfingers 7.12502
lthumb 6.13647 -90.066
rfemur -9.85197 -8.86995 21.4278
rtibia 6.36111e-015
rfoot -4.62737 -15.6596
rtoes -15.3825
lfemur -40.8321 -10.6577 -4.90607
ltibia 34.689
lfoot -14.2142 -4.29292
ltoes -27.8443
1410
root -8.51089 17.6167 -6.11042 -143.539 65.2824 -161.872
lowerback 15.0424 0.925329 -7.76857
upperback 6.6199 0.901683 -8.84819
thorax -1.27679 0.833703 -5.16488
lowerneck -20.6287 -4.11723 -0.0911885
upperneck 44.5028 -6.33229 6.47746
head 22.6221 -0.782843 2.26996
rclavicle 2.22639e-014 6.36111e-014
rhumerus -5.83825 59.4255 -56.4132
rradius 74.3564
rwrist -53.717
rhand -14.254 -12.5593
rfingers 7.12502
rthumb 11.8841 -42.202
lclavicle 2.22639e-014 6.36111e-014
lhumerus 29.7381 -73.4178 68.6775
lradius 35.1319
lwrist -0.0172911
lhand -20.1467 60.1865
lfingers 7.12502
lthumb 6.19821 -90.0759
rfemur -9.76155 -9.02306 21.3605
rtibia -2.22639e-014
rfoot -4.76472 -15.6437
rtoes -15.1001
lfemur -40.8138 -10.8239 -4.96119
ltibia 34.6985
lfoot -14.2475 -4.28158
ltoes -27.5174
1411
root -8.50143 17.6151 -6.11127 -143.464 65.1517 -161.82
lowerback 15.0567 0.914321 -7.64902
upperback 6.62514 0.903441 -8.87529
thorax -1.27809 0.837962 -5.26237
lowerneck -20.5607 -4.08432 -0.0147475
upperneck 44.5061 -6.30468 6.49486
head 22.5931 -0.755193 2.27221
rclavicle -4.45278e-014 -9.22361e-014
rhumerus -5.6163 59.914 -56.1584
rradius 74.297
rwrist -52.8199
rhand -14.7358 -12.4645
rfingers 7.12502
rthumb 11.4195 -42.1335
lclavicle -4.45278e-014 -9.22361e-014
lhumerus 29.7947 -73.5495 68.568
lradius 35.1672
lwrist -0.0245356
lhand -20.7473 60.223
lfingers 7.12502
lthumb 5.61834 -90.1285
rfemur -9.74514 -9.10988 21.4741
rtibia -7.95139e-015
rfoot -4.7675 -15.6538
rtoes -15.0778
lfemur -40.8526 -10.8009 -4.89232
ltibia 34.726
lfoot -14.2928 -4.36898
ltoes -27.4685
1412
root -8.49144 17.6128 -6.11296 -143.286 64.9959 -161.632
lowerback 15.0701 0.921384 -7.53476
upperback 6.63803 0.925822 -8.84416
thorax -1.27158 0.849244 -5.29634
lowerneck -20.4853 -4.12764 -0.0263435
upperneck 44.4811 -6.36934 6.50582
head 22.5494 -0.781317 2.26201
rclavicle -1.27222e-014 -6.99722e-014
rhumerus -5.41087 60.4022 -55.8103
rradius 74.3593
rwrist -52.3697
rhand -15.3432 -12.5122
rfingers 7.12502
rthumb 10.8337 -42.2128
lclavicle -1.27222e-014 -6.99722e-014
lhumerus 29.9198 -73.6727 68.4489
lradius 35.1819
lwrist -0.0304088
lhand -21.9863 60.1825
lfingers 7.12502
lthumb 4.42195 -90.1163
rfemur -9.70662 -9.18344 21.6431
rtibia 1.11319e-014
rfoot -4.89133 -15.7235
rtoes -13.6822
lfemur -40.8946 -10.7631 -4.76325
ltibia 34.7837
lfoot -14.3724 -4.47923
ltoes -27.7699
1413
root -8.48152 17.6127 -6.11559 -143.237 64.8574 -161.568
lowerback 15.0804 0.932085 -7.50827
upperback 6.66472 0.946351 -8.8102
thorax -1.24846 0.858947 -5.27724
lowerneck -20.4425 -4.23816 -0.104424
upperneck 44.4738 -6.52043 6.518
head 22.5466 -0.85124 2.24562
rclavicle 6.67916e-014 4.77083e-014
rhumerus -5.26353 60.8824 -55.5036
rradius 74.4647
rwrist -51.9559
rhand -15.8682 -12.4785
rfingers 7.12502
rthumb 10.3273 -42.2049
lclavicle 6.67916e-014 4.77083e-014
lhumerus 29.9029 -73.7039 68.5309
lradius 35.1461
lwrist -0.148288
lhand -22.3965 60.1598
lfingers 7.12502
lthumb 4.02588 -90.1015
rfemur -9.64247 -9.2774 21.7444
rtibia 3.97569e-014
rfoot -5.13909 -15.8407
rtoes -11.1865
lfemur -40.9247 -10.8153 -4.66939
ltibia 34.8582
lfoot -14.4953 -4.51467
ltoes -28.3
1414
root -8.47277 17.6125 -6.11774 -143.247 64.7308 -161.549
lowerback 15.1368 0.917815 -7.45292
upperback 6.68877 0.934591 -8.82176
thorax -1.25268 0.856079 -5.32083
lowerneck -20.4437 -4.30061 -0.148829
upperneck 44.4802 -6.61289 6.53942
head 22.5668 -0.890732 2.24383
rclavicle -1.90833e-014 3.18055e-015
rhumerus -5.18262 61.3849 -55.3762
rradius 74.5678
rwrist -51.2488
rhand -16.2215 -12.3127
rfingers 7.12502
rthumb 9.9865 -42.0558
lclavicle -1.90833e-014 3.18055e-015
lhumerus 29.9956 -73.7521 68.4254
lradius 35.106
lwrist -0.27173
lhand -21.6068 60.2702
lfingers 7.12502
lthumb 4.78844 -90.196
rfemur -9.55735 -9.37494 21.8155
rtibia -1.74931e-014
rfoot -5.2403 -15.7962
rtoes -10.65
lfemur -40.9302 -10.8655 -4.61151
ltibia 34.9287
lfoot -14.5534 -4.53799
ltoes -28.6792
